<svg width="33" height="33" viewBox="0 0 33 33" fill="none" xmlns="http://www.w3.org/2000/svg">
<path fill-rule="evenodd" clip-rule="evenodd" d="M25.1576 16.4588C24.6899 17.3113 23.7826 17.875 22.7513 17.875H12.5075L10.995 20.625H27.4949V23.375H10.995C8.90497 23.375 7.58502 21.1337 8.58875 19.2913L10.445 15.9363L5.495 5.5H2.745V2.75H7.24127L8.53369 5.5H28.8837C29.9288 5.5 30.5887 6.62751 30.0799 7.53501L25.1576 16.4588ZM26.5463 8.25H9.84004L13.0988 15.125H22.7513L26.5463 8.25ZM10.995 24.75C9.48252 24.75 8.25876 25.9875 8.25876 27.5C8.25876 29.0125 9.48252 30.25 10.995 30.25C12.5075 30.25 13.745 29.0125 13.745 27.5C13.745 25.9875 12.5075 24.75 10.995 24.75ZM22.0087 27.5C22.0087 25.9875 23.2326 24.75 24.7449 24.75C26.2574 24.75 27.4949 25.9875 27.4949 27.5C27.4949 29.0125 26.2574 30.25 24.7449 30.25C23.2326 30.25 22.0087 29.0125 22.0087 27.5Z" fill="black" fill-opacity="0.54"/>
</svg>
