<svg width="18" height="18" viewBox="0 0 18 18" fill="none" xmlns="http://www.w3.org/2000/svg">
<path fill-rule="evenodd" clip-rule="evenodd" d="M13.7097 7.24358C13.863 7.41261 13.9488 7.64475 13.9488 7.8814C13.9488 8.11805 13.863 8.35244 13.7097 8.51922C13.5584 8.68826 13.3478 8.78292 13.1312 8.78292C12.9165 8.78292 12.706 8.68826 12.5549 8.51922C12.4016 8.35244 12.3135 8.1203 12.3135 7.8814C12.3135 7.64475 12.4016 7.41261 12.5549 7.24358C12.706 7.07679 12.9165 6.97988 13.1312 6.97988C13.3478 6.97988 13.5584 7.07679 13.7097 7.24358ZM14.6968 5.93393C14.723 6.36869 14.4245 6.7444 14.0302 6.77302C14.0143 6.77415 13.9983 6.77483 13.9824 6.77483C13.6087 6.77483 13.2941 6.45501 13.2692 6.03783C13.1925 4.75948 12.4348 4.54965 12.2835 4.52058C11.8921 4.46153 11.6243 4.06463 11.6778 3.63303C11.7316 3.20121 12.0983 2.90168 12.4898 2.9596C13.1979 3.06665 14.5707 3.82596 14.6968 5.93393ZM14.8964 8.54431C12.2472 11.8209 9.8341 14.3762 8.78974 15.4522C7.746 14.3771 5.33493 11.8243 2.68306 8.54431C1.61275 7.22066 1.3464 5.60626 1.95249 4.11515C2.51442 2.73222 3.71863 1.80298 4.94879 1.80298C7.38828 1.80298 7.9404 3.81472 7.99682 4.05047C8.08717 4.44803 8.41096 4.73291 8.78341 4.73291H8.79056C9.16198 4.73291 9.48802 4.44826 9.58246 4.05159C9.63704 3.82193 10.1869 1.80546 12.6309 1.80546C13.8609 1.80546 15.0651 2.73335 15.6272 4.11628C16.2331 5.60739 15.9669 7.22066 14.8964 8.54431ZM17.1192 3.37777C16.2854 1.32591 14.5236 0 12.6309 0C10.7395 0 9.51257 0.917295 8.78976 1.91099C8.06695 0.917295 6.84006 0 4.94882 0C3.05614 0 1.29429 1.32591 0.460283 3.37777C-0.40807 5.51437 -0.033378 7.89415 1.46253 9.74429C5.04571 14.1762 8.21229 17.3182 8.24377 17.3493C8.39913 17.503 8.59455 17.5796 8.78976 17.5796C8.98518 17.5796 9.1804 17.503 9.33575 17.3493C9.36723 17.3182 12.5338 14.1762 16.117 9.74429C17.6129 7.89415 17.9878 5.51437 17.1192 3.37777Z" fill="#F84E5D"/>
</svg>
